<svg width="452" height="976" viewBox="0 0 452 976" fill="none" xmlns="http://www.w3.org/2000/svg">
<path d="M740.29 141.49C793.737 185.467 838.727 236.873 869.996 296.221C897.28 348.003 900.726 405.784 909.556 462.747C917.498 513.991 908.097 565.129 919.533 615.812C937.968 697.516 1034.93 776.385 997.472 852.392C963.609 921.108 846.083 903.11 767.402 924.518C702.045 942.301 638.935 961.373 571.202 968.374C500.346 975.697 429.36 981.768 359.986 966.625C284.433 950.133 207.188 926.773 151.72 876.809C95.2437 825.936 69.8959 753.833 46.6274 684.36C22.9803 613.757 -23.8081 532.374 14.6305 467.501C56.7907 396.347 201.474 423.26 243.527 352.053C295.082 264.754 191.953 137.709 256.458 58.0187C310.857 -9.18649 431.542 -6.31042 521.097 9.13955C608.1 24.1494 674.327 87.2138 740.29 141.49Z" fill="#002E64"/>
</svg>
